<svg width="93" height="24" viewBox="0 0 93 24" fill="none" xmlns="http://www.w3.org/2000/svg">
<path d="M12 4V20M18 6L6.00001 18M20 12H4M18 18L6.00001 6.00001" stroke="#F54B2A" stroke-width="1.5" stroke-linecap="round" stroke-linejoin="round"/>
<path d="M31.625 9.42045C31.5644 8.88258 31.3144 8.46591 30.875 8.17045C30.4356 7.87121 29.8826 7.72159 29.2159 7.72159C28.7386 7.72159 28.3258 7.79735 27.9773 7.94886C27.6288 8.09659 27.358 8.30114 27.1648 8.5625C26.9754 8.82008 26.8807 9.11364 26.8807 9.44318C26.8807 9.7197 26.9451 9.95833 27.0739 10.1591C27.2064 10.3598 27.3788 10.5284 27.5909 10.6648C27.8068 10.7973 28.0379 10.9091 28.2841 11C28.5303 11.0871 28.767 11.1591 28.9943 11.2159L30.1307 11.5114C30.5019 11.6023 30.8826 11.7254 31.2727 11.8807C31.6629 12.036 32.0246 12.2405 32.358 12.4943C32.6913 12.7481 32.9602 13.0625 33.1648 13.4375C33.3731 13.8125 33.4773 14.2614 33.4773 14.7841C33.4773 15.4432 33.3068 16.0284 32.9659 16.5398C32.6288 17.0511 32.1383 17.4545 31.4943 17.75C30.8542 18.0455 30.0795 18.1932 29.1705 18.1932C28.2992 18.1932 27.5455 18.0549 26.9091 17.7784C26.2727 17.5019 25.7746 17.1098 25.4148 16.6023C25.0549 16.0909 24.8561 15.4848 24.8182 14.7841H26.5795C26.6136 15.2045 26.75 15.5549 26.9886 15.8352C27.2311 16.1117 27.5398 16.3182 27.9148 16.4545C28.2936 16.5871 28.7083 16.6534 29.1591 16.6534C29.6553 16.6534 30.0966 16.5758 30.483 16.4205C30.8731 16.2614 31.1799 16.0417 31.4034 15.7614C31.6269 15.4773 31.7386 15.1458 31.7386 14.767C31.7386 14.4223 31.6402 14.1402 31.4432 13.9205C31.25 13.7008 30.9867 13.5189 30.6534 13.375C30.3239 13.2311 29.9508 13.1042 29.5341 12.9943L28.1591 12.6193C27.2273 12.3655 26.4886 11.9924 25.9432 11.5C25.4015 11.0076 25.1307 10.3561 25.1307 9.54545C25.1307 8.875 25.3125 8.28977 25.6761 7.78977C26.0398 7.28977 26.5322 6.90151 27.1534 6.625C27.7746 6.3447 28.4754 6.20455 29.2557 6.20455C30.0436 6.20455 30.7386 6.3428 31.3409 6.61932C31.947 6.89583 32.4242 7.27652 32.7727 7.76136C33.1212 8.24242 33.303 8.79545 33.3182 9.42045H31.625ZM42.9048 9.27273L39.7401 18H37.9219L34.7514 9.27273H36.5753L38.7855 15.9886H38.8764L41.081 9.27273H42.9048ZM44.5014 18V9.27273H46.2003V18H44.5014ZM45.3594 7.92614C45.0639 7.92614 44.8101 7.82765 44.598 7.63068C44.3897 7.42992 44.2855 7.19129 44.2855 6.91477C44.2855 6.63447 44.3897 6.39583 44.598 6.19886C44.8101 5.99811 45.0639 5.89773 45.3594 5.89773C45.6548 5.89773 45.9067 5.99811 46.1151 6.19886C46.3272 6.39583 46.4332 6.63447 46.4332 6.91477C46.4332 7.19129 46.3272 7.42992 46.1151 7.63068C45.9067 7.82765 45.6548 7.92614 45.3594 7.92614ZM51.7528 18.1705C51.0483 18.1705 50.4195 17.9905 49.8665 17.6307C49.3172 17.267 48.8854 16.75 48.571 16.0795C48.2604 15.4053 48.1051 14.5966 48.1051 13.6534C48.1051 12.7102 48.2623 11.9034 48.5767 11.233C48.8949 10.5625 49.3305 10.0492 49.8835 9.69318C50.4366 9.33712 51.0634 9.15909 51.7642 9.15909C52.3059 9.15909 52.7415 9.25 53.071 9.43182C53.4044 9.60985 53.6619 9.81818 53.8438 10.0568C54.0294 10.2955 54.1733 10.5057 54.2756 10.6875H54.3778V6.36364H56.0767V18H54.4176V16.642H54.2756C54.1733 16.8277 54.0256 17.0398 53.8324 17.2784C53.643 17.517 53.3816 17.7254 53.0483 17.9034C52.715 18.0814 52.2831 18.1705 51.7528 18.1705ZM52.1278 16.7216C52.6165 16.7216 53.0294 16.5928 53.3665 16.3352C53.7074 16.0739 53.965 15.7121 54.1392 15.25C54.3172 14.7879 54.4062 14.25 54.4062 13.6364C54.4062 13.0303 54.3191 12.5 54.1449 12.0455C53.9706 11.5909 53.715 11.2367 53.3778 10.983C53.0407 10.7292 52.6241 10.6023 52.1278 10.6023C51.6165 10.6023 51.1903 10.7348 50.8494 11C50.5085 11.2652 50.2509 11.6269 50.0767 12.0852C49.9063 12.5436 49.821 13.0606 49.821 13.6364C49.821 14.2197 49.9081 14.7443 50.0824 15.2102C50.2566 15.6761 50.5142 16.0455 50.8551 16.3182C51.1998 16.5871 51.6241 16.7216 52.1278 16.7216ZM62.1776 18.1761C61.3594 18.1761 60.6454 17.9886 60.0355 17.6136C59.4257 17.2386 58.9522 16.714 58.6151 16.0398C58.2779 15.3655 58.1094 14.5777 58.1094 13.6761C58.1094 12.7708 58.2779 11.9792 58.6151 11.3011C58.9522 10.6231 59.4257 10.0966 60.0355 9.72159C60.6454 9.34659 61.3594 9.15909 62.1776 9.15909C62.9957 9.15909 63.7098 9.34659 64.3196 9.72159C64.9295 10.0966 65.4029 10.6231 65.7401 11.3011C66.0772 11.9792 66.2457 12.7708 66.2457 13.6761C66.2457 14.5777 66.0772 15.3655 65.7401 16.0398C65.4029 16.714 64.9295 17.2386 64.3196 17.6136C63.7098 17.9886 62.9957 18.1761 62.1776 18.1761ZM62.1832 16.75C62.7135 16.75 63.1529 16.6098 63.5014 16.3295C63.8499 16.0492 64.1075 15.6761 64.2741 15.2102C64.4446 14.7443 64.5298 14.2311 64.5298 13.6705C64.5298 13.1136 64.4446 12.6023 64.2741 12.1364C64.1075 11.6667 63.8499 11.2898 63.5014 11.0057C63.1529 10.7216 62.7135 10.5795 62.1832 10.5795C61.6491 10.5795 61.206 10.7216 60.8537 11.0057C60.5052 11.2898 60.2457 11.6667 60.0753 12.1364C59.9086 12.6023 59.8253 13.1136 59.8253 13.6705C59.8253 14.2311 59.9086 14.7443 60.0753 15.2102C60.2457 15.6761 60.5052 16.0492 60.8537 16.3295C61.206 16.6098 61.6491 16.75 62.1832 16.75ZM68.142 18V9.27273H69.7727V10.6932H69.8807C70.0625 10.2121 70.3598 9.83712 70.7727 9.56818C71.1856 9.29545 71.6799 9.15909 72.2557 9.15909C72.839 9.15909 73.3277 9.29545 73.7216 9.56818C74.1193 9.84091 74.4129 10.2159 74.6023 10.6932H74.6932C74.9015 10.2273 75.233 9.85606 75.6875 9.57955C76.142 9.29924 76.6837 9.15909 77.3125 9.15909C78.1042 9.15909 78.75 9.4072 79.25 9.90341C79.7538 10.3996 80.0057 11.1477 80.0057 12.1477V18H78.3068V12.3068C78.3068 11.7159 78.1458 11.2879 77.8239 11.0227C77.5019 10.7576 77.1174 10.625 76.6705 10.625C76.1174 10.625 75.6875 10.7955 75.3807 11.1364C75.0739 11.4735 74.9205 11.9072 74.9205 12.4375V18H73.2273V12.1989C73.2273 11.7254 73.0795 11.3447 72.7841 11.0568C72.4886 10.7689 72.1042 10.625 71.6307 10.625C71.3087 10.625 71.0114 10.7102 70.7386 10.8807C70.4697 11.0473 70.2519 11.2803 70.0852 11.5795C69.9223 11.8788 69.8409 12.2254 69.8409 12.6193V18H68.142ZM85.9588 18.1761C85.1406 18.1761 84.4266 17.9886 83.8168 17.6136C83.2069 17.2386 82.7334 16.714 82.3963 16.0398C82.0592 15.3655 81.8906 14.5777 81.8906 13.6761C81.8906 12.7708 82.0592 11.9792 82.3963 11.3011C82.7334 10.6231 83.2069 10.0966 83.8168 9.72159C84.4266 9.34659 85.1406 9.15909 85.9588 9.15909C86.777 9.15909 87.491 9.34659 88.1009 9.72159C88.7107 10.0966 89.1842 10.6231 89.5213 11.3011C89.8584 11.9792 90.027 12.7708 90.027 13.6761C90.027 14.5777 89.8584 15.3655 89.5213 16.0398C89.1842 16.714 88.7107 17.2386 88.1009 17.6136C87.491 17.9886 86.777 18.1761 85.9588 18.1761ZM85.9645 16.75C86.4948 16.75 86.9342 16.6098 87.2827 16.3295C87.6312 16.0492 87.8887 15.6761 88.0554 15.2102C88.2259 14.7443 88.3111 14.2311 88.3111 13.6705C88.3111 13.1136 88.2259 12.6023 88.0554 12.1364C87.8887 11.6667 87.6312 11.2898 87.2827 11.0057C86.9342 10.7216 86.4948 10.5795 85.9645 10.5795C85.4304 10.5795 84.9872 10.7216 84.6349 11.0057C84.2865 11.2898 84.027 11.6667 83.8565 12.1364C83.6899 12.6023 83.6065 13.1136 83.6065 13.6705C83.6065 14.2311 83.6899 14.7443 83.8565 15.2102C84.027 15.6761 84.2865 16.0492 84.6349 16.3295C84.9872 16.6098 85.4304 16.75 85.9645 16.75Z" fill="black"/>
</svg>
